<mxfile host="app.diagrams.net" modified="2020-03-13T21:40:06.460Z" agent="Mozilla/5.0 (Macintosh; Intel Mac OS X 10_14_6) AppleWebKit/537.36 (KHTML, like Gecko) Chrome/80.0.3987.132 Safari/537.36" etag="RDrcqpDDPPGZjSmhF9aL" version="12.8.4" type="github">
  <diagram id="suOtVGOhvK3H6NPYOFTb" name="Page-1">
    <mxGraphModel dx="682" dy="480" grid="1" gridSize="10" guides="1" tooltips="1" connect="1" arrows="1" fold="1" page="1" pageScale="1" pageWidth="850" pageHeight="1100" math="0" shadow="0">
      <root>
        <mxCell id="0" />
        <mxCell id="1" parent="0" />
        <mxCell id="hsvIuuonFDnjHOsvkIpz-1" value="" style="whiteSpace=wrap;html=1;aspect=fixed;" parent="1" vertex="1">
          <mxGeometry x="373" y="130" width="105" height="105" as="geometry" />
        </mxCell>
        <mxCell id="hsvIuuonFDnjHOsvkIpz-2" value="COVID-19 EHR App" style="swimlane;" parent="1" vertex="1">
          <mxGeometry x="90" y="35" width="200" height="200" as="geometry" />
        </mxCell>
        <mxCell id="hsvIuuonFDnjHOsvkIpz-5" value="Sign In" style="rounded=0;whiteSpace=wrap;html=1;" parent="hsvIuuonFDnjHOsvkIpz-2" vertex="1">
          <mxGeometry x="60" y="130" width="80" height="30" as="geometry" />
        </mxCell>
        <mxCell id="hsvIuuonFDnjHOsvkIpz-19" value="COVID-19 &lt;br&gt;Symptom Tracker" style="rounded=0;whiteSpace=wrap;html=1;" parent="hsvIuuonFDnjHOsvkIpz-2" vertex="1">
          <mxGeometry x="40" y="45" width="120" height="60" as="geometry" />
        </mxCell>
        <mxCell id="hsvIuuonFDnjHOsvkIpz-9" value="" style="endArrow=classic;html=1;exitX=1;exitY=0.5;exitDx=0;exitDy=0;" parent="1" source="hsvIuuonFDnjHOsvkIpz-5" edge="1">
          <mxGeometry width="50" height="50" relative="1" as="geometry">
            <mxPoint x="330" y="270" as="sourcePoint" />
            <mxPoint x="360" y="180" as="targetPoint" />
          </mxGeometry>
        </mxCell>
        <mxCell id="hsvIuuonFDnjHOsvkIpz-11" value="Sign-in OAuth&lt;br&gt;pop up Modal" style="text;html=1;strokeColor=none;fillColor=none;align=center;verticalAlign=middle;whiteSpace=wrap;rounded=0;" parent="1" vertex="1">
          <mxGeometry x="390" y="60" width="70" height="60" as="geometry" />
        </mxCell>
        <mxCell id="hsvIuuonFDnjHOsvkIpz-13" value="Google" style="rounded=0;whiteSpace=wrap;html=1;" parent="1" vertex="1">
          <mxGeometry x="390" y="140" width="70" height="20" as="geometry" />
        </mxCell>
        <mxCell id="hsvIuuonFDnjHOsvkIpz-14" value="Facebook" style="rounded=0;whiteSpace=wrap;html=1;" parent="1" vertex="1">
          <mxGeometry x="390" y="170" width="70" height="20" as="geometry" />
        </mxCell>
        <mxCell id="hsvIuuonFDnjHOsvkIpz-16" value="Twitter" style="rounded=0;whiteSpace=wrap;html=1;" parent="1" vertex="1">
          <mxGeometry x="390" y="200" width="70" height="20" as="geometry" />
        </mxCell>
        <mxCell id="hsvIuuonFDnjHOsvkIpz-22" value="COVID-19 EHR App" style="swimlane;" parent="1" vertex="1">
          <mxGeometry x="90" y="290" width="200" height="200" as="geometry" />
        </mxCell>
        <mxCell id="hsvIuuonFDnjHOsvkIpz-25" value="Age" style="rounded=0;whiteSpace=wrap;html=1;" parent="hsvIuuonFDnjHOsvkIpz-22" vertex="1">
          <mxGeometry x="40" y="40" width="120" height="40" as="geometry" />
        </mxCell>
        <mxCell id="hsvIuuonFDnjHOsvkIpz-26" value="" style="endArrow=none;html=1;" parent="hsvIuuonFDnjHOsvkIpz-22" edge="1">
          <mxGeometry width="50" height="50" relative="1" as="geometry">
            <mxPoint x="65" y="140" as="sourcePoint" />
            <mxPoint x="135" y="140" as="targetPoint" />
          </mxGeometry>
        </mxCell>
        <mxCell id="_MpFShfPQ4OcshgmICSM-7" value="Next" style="shape=flexArrow;endArrow=classic;html=1;" edge="1" parent="hsvIuuonFDnjHOsvkIpz-22">
          <mxGeometry width="50" height="50" relative="1" as="geometry">
            <mxPoint x="150" y="170" as="sourcePoint" />
            <mxPoint x="200" y="170" as="targetPoint" />
          </mxGeometry>
        </mxCell>
        <mxCell id="_MpFShfPQ4OcshgmICSM-1" value="" style="shape=flexArrow;endArrow=classic;html=1;" edge="1" parent="1">
          <mxGeometry width="50" height="50" relative="1" as="geometry">
            <mxPoint x="330" y="400" as="sourcePoint" />
            <mxPoint x="380" y="400" as="targetPoint" />
          </mxGeometry>
        </mxCell>
        <mxCell id="_MpFShfPQ4OcshgmICSM-2" value="COVID-19 EHR App" style="swimlane;" vertex="1" parent="1">
          <mxGeometry x="400" y="290" width="200" height="200" as="geometry" />
        </mxCell>
        <mxCell id="_MpFShfPQ4OcshgmICSM-3" value="Gender" style="rounded=0;whiteSpace=wrap;html=1;" vertex="1" parent="_MpFShfPQ4OcshgmICSM-2">
          <mxGeometry x="40" y="40" width="120" height="40" as="geometry" />
        </mxCell>
        <mxCell id="_MpFShfPQ4OcshgmICSM-4" value="" style="endArrow=none;html=1;" edge="1" parent="_MpFShfPQ4OcshgmICSM-2">
          <mxGeometry width="50" height="50" relative="1" as="geometry">
            <mxPoint x="65" y="140" as="sourcePoint" />
            <mxPoint x="135" y="140" as="targetPoint" />
          </mxGeometry>
        </mxCell>
        <mxCell id="_MpFShfPQ4OcshgmICSM-8" value="Next" style="shape=flexArrow;endArrow=classic;html=1;" edge="1" parent="_MpFShfPQ4OcshgmICSM-2">
          <mxGeometry width="50" height="50" relative="1" as="geometry">
            <mxPoint x="140" y="170" as="sourcePoint" />
            <mxPoint x="190" y="170" as="targetPoint" />
          </mxGeometry>
        </mxCell>
        <mxCell id="_MpFShfPQ4OcshgmICSM-10" value="Prev" style="shape=flexArrow;endArrow=classic;html=1;" edge="1" parent="_MpFShfPQ4OcshgmICSM-2">
          <mxGeometry width="50" height="50" relative="1" as="geometry">
            <mxPoint x="70" y="170" as="sourcePoint" />
            <mxPoint x="20" y="170" as="targetPoint" />
          </mxGeometry>
        </mxCell>
        <mxCell id="_MpFShfPQ4OcshgmICSM-5" value="" style="shape=flexArrow;endArrow=classic;html=1;" edge="1" parent="1">
          <mxGeometry width="50" height="50" relative="1" as="geometry">
            <mxPoint x="480" y="540" as="sourcePoint" />
            <mxPoint x="480" y="600" as="targetPoint" />
          </mxGeometry>
        </mxCell>
      </root>
    </mxGraphModel>
  </diagram>
</mxfile>
